<svg role="img" viewBox="0 0 24 24" xmlns="http://www.w3.org/2000/svg">
    <title>Unity</title>
    <path fill="#000000" d="M24 9.501l-5.13-2.96-2.208-3.827L13.5 4.77V0L9.25 2.167 3.125 5.333 0 7.501l4.125 2.375L0 12.251l3.125 2.168 6.125 3.166L13.5 19.75v-4.77l3.162 2.056 2.209-3.827L24 9.5zm-10.24 5.533l-2.259-2.031-2.258 2.031.591-3.027L7.58 9.973l2.922-.477L11.5 6.67l.998 2.826 2.922.477-2.253 2.034.591 3.027zm1.115 2.467l1.944-1.268 2.662 1.533v3.036l-4.606-3.301zm1.944-10.954l-1.944-1.268 4.606-3.301v3.035L16.819 6.547zm3.91 2.246l1.945 1.123L24 8.772 19.674 6.2l-2.946 2.593zm-8.47-2.116l-4.608-3.301v3.036l2.665 1.535 1.943 1.267zm-3.912 2.116l-1.945 1.123L0 8.772l4.326-2.572 2.946 2.593h.001zm2.029 4.747l-2.665 1.533v3.036l4.609-3.301-1.944-1.268z"/>
</svg>
